<svg width="25" height="25" viewBox="0 0 25 25" fill="none" xmlns="http://www.w3.org/2000/svg">
<g clip-path="url(#clip0_524_840)">
<path d="M24.6044 10.1474C24.4473 9.6614 24.0163 9.31624 23.5063 9.27028L16.5793 8.6413L13.8401 2.23006C13.6381 1.7602 13.1782 1.45605 12.6671 1.45605C12.1561 1.45605 11.6961 1.7602 11.4941 2.23116L8.75497 8.6413L1.82681 9.27028C1.31776 9.31734 0.88782 9.6614 0.729796 10.1474C0.571772 10.6334 0.717711 11.1664 1.10279 11.5024L6.33883 16.0944L4.79484 22.8957C4.68186 23.3958 4.87596 23.9127 5.29089 24.2126C5.51391 24.3738 5.77485 24.4558 6.03798 24.4558C6.26485 24.4558 6.48989 24.3946 6.69186 24.2738L12.6671 20.7026L18.6402 24.2738C19.0773 24.5367 19.6282 24.5127 20.0422 24.2126C20.4574 23.9118 20.6513 23.3947 20.5383 22.8957L18.9943 16.0944L24.2303 11.5033C24.6154 11.1664 24.7625 10.6343 24.6044 10.1474Z" fill="#06C4BF"/>
</g>
<defs>
<clipPath id="clip0_524_840">
<rect width="24" height="24" fill="white" transform="translate(0.666992 0.941162)"/>
</clipPath>
</defs>
</svg>
